<?xml version="1.0" encoding="UTF-8" standalone="no"?>
<!-- Created with Inkscape (http://www.inkscape.org/) -->

<svg
   width="54.332272mm"
   height="45.145782mm"
   viewBox="0 0 54.332272 45.145782"
   version="1.1"
   id="svg5"
   xml:space="preserve"
   xmlns:inkscape="http://www.inkscape.org/namespaces/inkscape"
   xmlns:sodipodi="http://sodipodi.sourceforge.net/DTD/sodipodi-0.dtd"
   xmlns:xlink="http://www.w3.org/1999/xlink"
   xmlns="http://www.w3.org/2000/svg"
   xmlns:svg="http://www.w3.org/2000/svg"><sodipodi:namedview
     id="namedview7"
     pagecolor="#505050"
     bordercolor="#eeeeee"
     borderopacity="1"
     inkscape:showpageshadow="0"
     inkscape:pageopacity="0"
     inkscape:pagecheckerboard="0"
     inkscape:deskcolor="#505050"
     inkscape:document-units="mm"
     showgrid="false" /><defs
     id="defs2"><rect
       id="SVGID_13_-8"
       x="2000"
       y="689.5"
       width="304"
       height="621" /><linearGradient
       x1="2.983"
       y1="0.52999997"
       x2="2.983"
       y2="4.744"
       id="A-6"
       gradientUnits="userSpaceOnUse"><stop
         stop-color="#97d9f6"
         offset="0%"
         id="stop806" /><stop
         stop-color="#0f80cc"
         offset="92.024%"
         id="stop808" /><stop
         stop-color="#0f80cc"
         offset="100%"
         id="stop810" /></linearGradient></defs><g
     inkscape:label="Layer 1"
     inkscape:groupmode="layer"
     id="layer1"
     transform="translate(0,0.71067611)"><g
       id="ea44fd35-013e-4c34-91d8-30cb9983eb9c"
       transform="matrix(0.0237539,0,0,0.0237539,-13.943536,13.13765)"
       inkscape:export-filename="techstack.svg"
       inkscape:export-xdpi="187"
       inkscape:export-ydpi="187">
	<path
   class="st18"
   d="m 2243.5,1078 c -4.5,-2.6 -9.3,-4.5 -14.3,-5.7 V 927.7 c 29.2,-6.9 47.2,-36.2 40.3,-65.4 -6.9,-29.2 -36.2,-47.2 -65.4,-40.3 -10.3,2.5 -19.7,7.9 -27,15.6 L 2052,765.5 c 8.5,-28.7 -7.8,-58.9 -36.6,-67.4 -28.8,-8.5 -58.9,7.8 -67.4,36.6 -3,10 -3,20.7 0,30.8 l -125.2,72.3 c -20.6,-21.8 -54.9,-22.7 -76.7,-2.1 -21.8,20.6 -22.7,54.9 -2.1,76.7 7.2,7.7 16.6,13 26.8,15.5 v 144.6 c -29.1,7 -47.1,36.3 -40.1,65.5 7,29.2 36.3,47.1 65.5,40.1 5.1,-1.2 10,-3.2 14.5,-5.8 4.5,-2.6 8.6,-5.8 12.1,-9.6 L 1948,1235 c -8.5,28.7 8,58.9 36.7,67.4 28.7,8.5 58.9,-8 67.4,-36.7 3.1,-10.6 2.9,-21.9 -0.5,-32.4 l 124.4,-71.8 c 19.9,22.4 54.2,24.3 76.6,4.4 22.4,-19.9 24.3,-54.2 4.4,-76.6 -3.9,-4.7 -8.4,-8.4 -13.5,-11.3 z M 2000,888.5 c 61.9,0 112,50.1 112.1,111.9 0,52.5 -36.4,97.9 -87.6,109.4 0.2,-3.4 0.6,-6.7 1,-10.1 1.7,-12.3 4.3,-24.5 7.9,-36.4 3,-10 6.5,-20 10.2,-29.8 0.6,-1.5 1.1,-3 1.7,-4.5 1.6,1.5 3.6,2.6 5.7,3.3 1.7,0.4 3.4,0.8 5.1,1 1.6,0.4 3.2,0.9 4.7,1.6 6.4,2.4 13.4,1.2 19.9,-0.2 5.9,-1.3 12.2,-3.7 15.3,-9.3 1.6,-2.8 1.7,-6 1.9,-9.1 0.1,-2.4 0.2,-6.4 3,-7.4 1.4,-0.4 2.2,-1.9 1.8,-3.4 -0.2,-0.6 -0.6,-1.2 -1.1,-1.5 -8.4,-5 -20.7,-0.3 -27.8,5 -4.1,3 -6.9,6.8 -10,10.8 -2.2,2.8 -7.9,5.5 -11.4,3.7 -1.4,-0.8 -2.3,-2.2 -2.6,-3.8 -0.6,-2.8 0.6,-4.5 1.5,-7.1 0.9,-2.9 1.6,-5.9 2.2,-8.8 1.3,-6.8 2,-13.7 1.9,-20.6 -1.7,-0.2 -7,-1 -8.4,-1 v 0.2 c -1.2,3.8 -1.2,8 -3,11.5 -0.7,1.5 -1.8,2.9 -3.2,3.8 -3.4,1.8 -18.3,2.2 -21.6,0.5 -4.8,-2.5 -8.4,-15.5 -8.4,-15.9 h -9.6 c 0,0.4 -3.6,13.4 -8.4,15.9 -3.3,1.7 -18.2,1.3 -21.6,-0.5 -1.4,-0.9 -2.5,-2.2 -3.2,-3.8 -1.8,-3.5 -1.8,-7.8 -3,-11.5 0,0 0,-0.1 0,-0.2 -1.2,0 -7.9,0.8 -7.9,0.8 -1.1,7.4 -1.5,14.9 -1.2,22.3 0.1,2.4 1.5,7.2 0.7,9.4 -0.6,1.6 -3.8,2.8 -5.3,3.3 -4.7,1.6 -9.8,0.6 -13.5,-2.6 -4.1,-3.6 -7.4,-7 -12.7,-8.9 -9.8,-3.4 -20.7,-0.7 -27.8,6.8 -1,1 -1,2.7 0,3.7 0.1,0.1 0.2,0.2 0.4,0.3 0.6,0.7 1.6,0.9 2.5,0.6 2.4,-0.8 4.2,1.9 5.7,3.5 l 5.5,6 c 2.9,3.2 5.7,7.2 9.7,9 4,1.8 8.6,1.9 12.7,1.7 2.5,0 5,-0.7 7.2,-2 1.7,-0.8 3.3,-1.8 4.9,-2.8 2.3,-1.2 4.4,-2.7 6.5,-4.2 1.2,-1 3.2,-5.3 5,-4.8 1.7,0.5 2.3,5.6 2.5,6.9 2.7,15.3 5.5,30.6 10.4,45.4 4,12.1 8.4,24.2 15.3,35 -61.3,-8.2 -104.3,-64.6 -96.1,-125.9 7.1,-55.7 54.5,-97.1 110.5,-97.2 z M 1798.7,1073 c -0.7,-0.2 -1.4,-0.4 -2.1,-0.6 V 927.6 c 29,-7.2 46.7,-36.5 39.5,-65.5 -0.2,-0.7 -0.3,-1.3 -0.5,-2 L 1961,787.7 c 0.5,0.5 1,1 1.5,1.5 z m 241.4,140.6 c -20.2,-22.1 -54.6,-23.7 -76.7,-3.5 -0.8,0.8 -1.7,1.6 -2.5,2.4 l -125.2,-72.3 c 0.2,-0.7 0.4,-1.4 0.6,-2.1 h 327.5 c 0.3,1.2 0.6,2.4 1,3.6 z m 163.3,-141.2 c -0.7,0.2 -1.4,0.4 -2.1,0.6 L 2037.5,789.2 c 0.5,-0.5 1,-1 1.4,-1.4 l 125.5,72.4 c -8.2,28.7 8.4,58.7 37.1,66.9 0.6,0.2 1.3,0.3 1.9,0.5 z"
   id="path499" />
	<path
   class="st18"
   d="m 1956.9,966.3 c 1.2,0.1 2.3,0.2 3.5,0.2 -0.8,2.7 -2.2,8.8 -2.2,8.8 0,0 15.3,-0.6 20.8,-0.7 7.7,-0.1 15.5,0.1 23.2,0.5 1.6,0.1 6.3,0 7.1,0 7.7,-0.4 15.4,-0.5 23.2,-0.5 6,0.1 22.3,0.7 22.3,0.7 0,0 -0.4,-4.3 -0.7,-6.2 1.9,0 3.8,-0.3 4.8,-1.5 1.8,-2.1 1.3,-6.5 1,-9 -1.1,-10 -7.9,-18.5 -17.4,-21.8 1,-2.2 1.6,-4.6 1.7,-7.1 0.1,-1.7 -0.3,-3.5 -1.2,-5 -3,-5.2 -10,-7.8 -14.9,-8.9 0.3,-3.1 -0.1,-6.2 -1.4,-9.1 -1.6,-3.8 -5.3,-9.5 -9.6,-10.5 -4.7,-1.1 -8.1,4.7 -10.6,8.2 -0.2,-0.3 -2.4,-5.2 -4.2,-6.2 -1.8,-1 -3.7,-0.6 -5.5,0 -3.2,1 -6.8,4.2 -4.2,7.7 1.2,1.6 5.2,4.3 5.4,4.6 -3.1,1.5 -6.6,1.9 -9.9,2.8 -0.9,0.2 -1.8,0.5 -2.7,0.8 -3.4,1.2 -6.4,3.2 -8.7,5.9 -2.8,3.5 -4.1,8.2 -2.3,12.4 -5,3.6 -9.4,8.1 -12.9,13.2 -3.8,5.5 -8.3,11.8 -7,18.8 0.2,1 1.2,1.8 2.4,1.9 z"
   id="path501" />
	<g
   id="g517">
		<defs
   id="defs504" />
		<clipPath
   id="SVGID_14_">
			<use
   xlink:href="#SVGID_13_-8"
   style="overflow:visible"
   id="use506" />
		</clipPath>
		<g
   class="st19"
   clip-path="url(#SVGID_14_)"
   id="g515">
			<g
   class="st20"
   id="g513">
				<path
   d="m 2243.5,1078 c -4.5,-2.6 -9.3,-4.5 -14.3,-5.7 V 927.7 c 29.2,-6.9 47.2,-36.2 40.3,-65.4 -6.9,-29.2 -36.2,-47.2 -65.4,-40.3 -10.3,2.5 -19.7,7.9 -27,15.6 L 2052,765.5 c 8.5,-28.7 -7.8,-58.9 -36.6,-67.4 -28.8,-8.5 -58.9,7.8 -67.4,36.6 -3,10 -3,20.7 0,30.8 l -125.2,72.3 c -20.6,-21.8 -54.9,-22.7 -76.7,-2.1 -21.8,20.6 -22.7,54.9 -2.1,76.7 7.2,7.7 16.6,13 26.8,15.5 v 144.6 c -29.1,7 -47.1,36.3 -40.1,65.5 7,29.2 36.3,47.1 65.5,40.1 5.1,-1.2 10,-3.2 14.5,-5.8 4.5,-2.6 8.6,-5.8 12.1,-9.6 L 1948,1235 c -8.5,28.7 8,58.9 36.7,67.4 28.7,8.5 58.9,-8 67.4,-36.7 3.1,-10.6 2.9,-21.9 -0.5,-32.4 l 124.4,-71.8 c 19.9,22.4 54.2,24.3 76.6,4.4 22.4,-19.9 24.3,-54.2 4.4,-76.6 -3.9,-4.7 -8.4,-8.4 -13.5,-11.3 z M 2000,888.5 c 61.9,0 112,50.1 112.1,111.9 0,52.5 -36.4,97.9 -87.6,109.4 0.2,-3.4 0.6,-6.7 1,-10.1 1.7,-12.3 4.3,-24.5 7.9,-36.4 3,-10 6.5,-20 10.2,-29.8 0.6,-1.5 1.1,-3 1.7,-4.5 1.6,1.5 3.6,2.6 5.7,3.3 1.7,0.4 3.4,0.8 5.1,1 1.6,0.4 3.2,0.9 4.7,1.6 6.4,2.4 13.4,1.2 19.9,-0.2 5.9,-1.3 12.2,-3.7 15.3,-9.3 1.6,-2.8 1.7,-6 1.9,-9.1 0.1,-2.4 0.2,-6.4 3,-7.4 1.4,-0.4 2.2,-1.9 1.8,-3.4 -0.2,-0.6 -0.6,-1.2 -1.1,-1.5 -8.4,-5 -20.7,-0.3 -27.8,5 -4.1,3 -6.9,6.8 -10,10.8 -2.2,2.8 -7.9,5.5 -11.4,3.7 -1.4,-0.8 -2.3,-2.2 -2.6,-3.8 -0.6,-2.8 0.6,-4.5 1.5,-7.1 0.9,-2.9 1.6,-5.9 2.2,-8.8 1.3,-6.8 2,-13.7 1.9,-20.6 -1.7,-0.2 -7,-1 -8.4,-1 v 0.2 c -1.2,3.8 -1.2,8 -3,11.5 -0.7,1.5 -1.8,2.9 -3.2,3.8 -3.4,1.8 -18.3,2.2 -21.6,0.5 -4.8,-2.5 -8.4,-15.5 -8.4,-15.9 h -9.6 c 0,0.4 -3.6,13.4 -8.4,15.9 -3.3,1.7 -18.2,1.3 -21.6,-0.5 -1.4,-0.9 -2.5,-2.2 -3.2,-3.8 -1.8,-3.5 -1.8,-7.8 -3,-11.5 0,0 0,-0.1 0,-0.2 -1.2,0 -7.9,0.8 -7.9,0.8 -1.1,7.4 -1.5,14.9 -1.2,22.3 0.1,2.4 1.5,7.2 0.7,9.4 -0.6,1.6 -3.8,2.8 -5.3,3.3 -4.7,1.6 -9.8,0.6 -13.5,-2.6 -4.1,-3.6 -7.4,-7 -12.7,-8.9 -9.8,-3.4 -20.7,-0.7 -27.8,6.8 -1,1 -1,2.7 0,3.7 0.1,0.1 0.2,0.2 0.4,0.3 0.6,0.7 1.6,0.9 2.5,0.6 2.4,-0.8 4.2,1.9 5.7,3.5 l 5.5,6 c 2.9,3.2 5.7,7.2 9.7,9 4,1.8 8.6,1.9 12.7,1.7 2.5,0 5,-0.7 7.2,-2 1.7,-0.8 3.3,-1.8 4.9,-2.8 2.3,-1.2 4.4,-2.7 6.5,-4.2 1.2,-1 3.2,-5.3 5,-4.8 1.7,0.5 2.3,5.6 2.5,6.9 2.7,15.3 5.5,30.6 10.4,45.4 4,12.1 8.4,24.2 15.3,35 -61.3,-8.2 -104.3,-64.6 -96.1,-125.9 7.1,-55.7 54.5,-97.1 110.5,-97.2 z M 1798.7,1073 c -0.7,-0.2 -1.4,-0.4 -2.1,-0.6 V 927.6 c 29,-7.2 46.7,-36.5 39.5,-65.5 -0.2,-0.7 -0.3,-1.3 -0.5,-2 L 1961,787.7 c 0.5,0.5 1,1 1.5,1.5 z m 241.4,140.6 c -20.2,-22.1 -54.6,-23.7 -76.7,-3.5 -0.8,0.8 -1.7,1.6 -2.5,2.4 l -125.2,-72.3 c 0.2,-0.7 0.4,-1.4 0.6,-2.1 h 327.5 c 0.3,1.2 0.6,2.4 1,3.6 z m 163.3,-141.2 c -0.7,0.2 -1.4,0.4 -2.1,0.6 L 2037.5,789.2 c 0.5,-0.5 1,-1 1.4,-1.4 l 125.5,72.4 c -8.2,28.7 8.4,58.7 37.1,66.9 0.6,0.2 1.3,0.3 1.9,0.5 z"
   id="path509" />
				<path
   d="m 1956.9,966.3 c 1.2,0.1 2.3,0.2 3.5,0.2 -0.8,2.7 -2.2,8.8 -2.2,8.8 0,0 15.3,-0.6 20.8,-0.7 7.7,-0.1 15.5,0.1 23.2,0.5 1.6,0.1 6.3,0 7.1,0 7.7,-0.4 15.4,-0.5 23.2,-0.5 6,0.1 22.3,0.7 22.3,0.7 0,0 -0.4,-4.3 -0.7,-6.2 1.9,0 3.8,-0.3 4.8,-1.5 1.8,-2.1 1.3,-6.5 1,-9 -1.1,-10 -7.9,-18.5 -17.4,-21.8 1,-2.2 1.6,-4.6 1.7,-7.1 0.1,-1.7 -0.3,-3.5 -1.2,-5 -3,-5.2 -10,-7.8 -14.9,-8.9 0.3,-3.1 -0.1,-6.2 -1.4,-9.1 -1.6,-3.8 -5.3,-9.5 -9.6,-10.5 -4.7,-1.1 -8.1,4.7 -10.6,8.2 -0.2,-0.3 -2.4,-5.2 -4.2,-6.2 -1.8,-1 -3.7,-0.6 -5.5,0 -3.2,1 -6.8,4.2 -4.2,7.7 1.2,1.6 5.2,4.3 5.4,4.6 -3.1,1.5 -6.6,1.9 -9.9,2.8 -0.9,0.2 -1.8,0.5 -2.7,0.8 -3.4,1.2 -6.4,3.2 -8.7,5.9 -2.8,3.5 -4.1,8.2 -2.3,12.4 -5,3.6 -9.4,8.1 -12.9,13.2 -3.8,5.5 -8.3,11.8 -7,18.8 0.2,1 1.2,1.8 2.4,1.9 z"
   id="path511" />
			</g>
		</g>
	</g>
</g><g
       id="g751"
       transform="matrix(0.46153759,0,0,0.46153759,26.914605,17.66685)"><path
         d="m -33.442,42.023 v -7.637 a 0.68,0.68 0 0 1 0.385,-0.651 l 13.173,-7.608 c 0.237,-0.148 0.503,-0.178 0.74,-0.03 l 13.232,7.637 a 0.71,0.71 0 0 1 0.355,0.651 V 49.63 a 0.71,0.71 0 0 1 -0.355,0.651 l -11.367,6.57 a 56.27,56.27 0 0 1 -1.806,1.036 c -0.266,0.148 -0.533,0.148 -0.8,0 l -13.202,-7.608 c -0.237,-0.148 -0.355,-0.326 -0.355,-0.622 V 42.02 Z"
         fill="#009438"
         id="path739" /><path
         d="m -24.118,39.18 v 8.9 c 0,1.006 -0.8,1.894 -1.865,1.865 -0.65,-0.03 -1.154,-0.296 -1.5,-0.858 -0.178,-0.266 -0.237,-0.562 -0.237,-0.888 V 35.836 c 0,-0.83 0.503,-1.42 1.154,-1.687 0.651,-0.267 1.302,-0.207 1.954,0 0.622,0.178 1.095,0.562 1.5,1.036 l 7.874,9.443 c 0.03,0.03 0.06,0.09 0.118,0.148 v -9 c 0,-0.947 0.65,-1.687 1.57,-1.776 1.154,-0.148 1.924,0.68 2.042,1.54 v 12.6 c 0,0.7 -0.326,1.214 -0.918,1.54 -0.444,0.237 -0.918,0.296 -1.42,0.266 A 3.23,3.23 0 0 1 -15.8,49.117 c -0.296,-0.266 -0.503,-0.592 -0.77,-0.888 l -7.49,-8.97 c 0,-0.03 -0.03,-0.06 -0.06,-0.09 z"
         fill="#fefefe"
         id="path741" /></g><g
       id="g776"
       transform="matrix(0.5596032,0,0,0.5596032,42.736614,21.30068)"><circle
         cx="0"
         cy="0"
         r="2.05"
         fill="#61dafb"
         id="circle755" /><g
         stroke="#61dafb"
         stroke-width="1"
         fill="none"
         id="g763"><ellipse
           rx="11"
           ry="4.1999998"
           id="ellipse757"
           cx="0"
           cy="0" /><ellipse
           rx="11"
           ry="4.1999998"
           transform="rotate(60)"
           id="ellipse759"
           cx="0"
           cy="0" /><ellipse
           rx="11"
           ry="4.1999998"
           transform="rotate(120)"
           id="ellipse761"
           cx="0"
           cy="0" /></g></g><g
       id="g804"
       transform="matrix(0.03134803,0,0,0.03134803,18.29468,14.86607)"><path
         fill="#cd6799"
         d="m 471.4,236 c -19.1,0.1 -35.7,4.7 -49.6,11.5 -5.1,-10.1 -10.2,-19.1 -11.1,-25.7 -1,-7.7 -2.2,-12.4 -1,-21.6 1.2,-9.2 6.6,-22.3 6.5,-23.3 -0.1,-1 -1.2,-5.7 -12.2,-5.8 -11,-0.1 -20.5,2.1 -21.6,5 -1.1,2.9 -3.2,9.5 -4.6,16.3 -1.9,10 -22,45.7 -33.5,64.4 -3.7,-7.3 -6.9,-13.7 -7.6,-18.8 -1,-7.7 -2.2,-12.4 -1,-21.6 1.2,-9.2 6.6,-22.3 6.5,-23.3 -0.1,-1 -1.2,-5.7 -12.2,-5.8 -11,-0.1 -20.5,2.1 -21.6,5 -1.1,2.9 -2.3,9.7 -4.6,16.3 -2.3,6.6 -29,66.2 -36,81.6 -3.6,7.9 -6.7,14.2 -8.9,18.5 0,0 0,0 0,0 0,0 -0.1,0.3 -0.4,0.8 -1.9,3.7 -3,5.7 -3,5.7 0,0 0,0 0,0.1 -1.5,2.7 -3.1,5.2 -3.9,5.2 -0.6,0 -1.7,-7.2 0.2,-17 4,-20.7 13.5,-52.9 13.4,-54 0,-0.6 1.8,-6.2 -6.2,-9.1 -7.8,-2.9 -10.6,1.9 -11.3,1.9 -0.7,0 -1.2,1.7 -1.2,1.7 0,0 8.7,-36.2 -16.6,-36.2 -15.8,0 -37.6,17.3 -48.4,32.9 -6.8,3.7 -21.3,11.6 -36.8,20.1 -5.9,3.3 -12,6.6 -17.7,9.7 -0.4,-0.4 -0.8,-0.9 -1.2,-1.3 C 95.2,236.5 38.6,213.4 41,169.5 c 0.9,-16 6.4,-58 108.7,-109 84.2,-41.5 151.2,-30 162.8,-4.5 16.6,36.4 -35.9,104 -122.9,113.8 -33.2,3.7 -50.6,-9.1 -55,-13.9 -4.6,-5 -5.3,-5.3 -7,-4.3 -2.8,1.5 -1,6 0,8.6 2.6,6.8 13.3,18.8 31.4,24.7 16,5.2 54.9,8.1 102,-10.1 C 313.7,154.4 354.9,97.7 342.8,50.2 330.7,2 250.7,-13.9 175,13 130,29 81.2,54.2 46.1,87 4.4,126 -2.2,159.9 0.5,174.1 c 9.7,50.4 79.2,83.2 107,107.5 -1.4,0.8 -2.7,1.5 -3.8,2.1 -13.9,6.9 -66.9,34.6 -80.1,63.9 -15,33.2 2.4,57 13.9,60.2 35.7,9.9 72.4,-7.9 92.1,-37.3 19.7,-29.4 17.3,-67.6 8.2,-85.1 -0.1,-0.2 -0.2,-0.4 -0.4,-0.6 3.6,-2.1 7.3,-4.3 10.9,-6.4 7.1,-4.2 14.1,-8.1 20.1,-11.3 -3.4,9.3 -5.9,20.4 -7.1,36.4 -1.5,18.8 6.2,43.2 16.3,52.8 4.5,4.2 9.8,4.3 13.2,4.3 11.8,0 17.1,-9.8 23,-21.4 7.2,-14.2 13.7,-30.7 13.7,-30.7 0,0 -8.1,44.6 13.9,44.6 8,0 16.1,-10.4 19.7,-15.7 0,0.1 0,0.1 0,0.1 0,0 0.2,-0.3 0.6,-1 0.8,-1.3 1.3,-2.1 1.3,-2.1 0,0 0,-0.1 0,-0.2 3.2,-5.6 10.4,-18.3 21.1,-39.4 13.8,-27.2 27.1,-61.2 27.1,-61.2 0,0 1.2,8.3 5.3,22.1 2.4,8.1 7.4,17 11.4,25.6 -3.2,4.5 -5.2,7 -5.2,7 0,0 0,0 0.1,0.1 -2.6,3.4 -5.4,7.1 -8.5,10.7 -10.9,13 -23.9,27.9 -25.7,32.2 -2.1,5.1 -1.6,8.8 2.4,11.8 2.9,2.2 8.1,2.5 13.4,2.2 9.8,-0.7 16.7,-3.1 20.1,-4.6 5.3,-1.9 11.5,-4.8 17.3,-9.1 10.7,-7.9 17.2,-19.2 16.6,-34.1 -0.3,-8.2 -3,-16.4 -6.3,-24.1 1,-1.4 1.9,-2.8 2.9,-4.2 16.9,-24.7 30,-51.8 30,-51.8 0,0 1.2,8.3 5.3,22.1 2,7 6.1,14.6 9.7,22 -15.9,12.9 -25.7,27.9 -29.2,37.7 -6.3,18.2 -1.4,26.4 7.9,28.3 4.2,0.9 10.2,-1.1 14.6,-3 5.6,-1.8 12.2,-4.9 18.5,-9.5 10.7,-7.9 21,-18.9 20.4,-33.8 -0.3,-6.8 -2.1,-13.5 -4.6,-20 13.5,-5.6 30.9,-8.7 53.1,-6.1 47.6,5.6 57,35.3 55.2,47.8 -1.8,12.5 -11.8,19.3 -15.1,21.4 -3.3,2.1 -4.4,2.8 -4.1,4.3 0.4,2.2 2,2.1 4.8,1.7 3.9,-0.7 25,-10.1 25.9,-33.1 1.5,-29.4 -26.5,-61.5 -76,-61.2 z M 104.2,359.8 C 88.4,377 66.4,383.5 56.9,378 c -10.2,-5.9 -6.2,-31.3 13.2,-49.5 11.8,-11.1 27,-21.4 37.1,-27.7 2.3,-1.4 5.7,-3.4 9.8,-5.9 0.7,-0.4 1.1,-0.6 1.1,-0.6 v 0 c 0.8,-0.5 1.6,-1 2.4,-1.5 7.1,26 0.3,48.9 -16.3,67 z m 115,-78.2 c -5.5,13.4 -17,47.7 -24,45.8 -6,-1.6 -9.7,-27.6 -1.2,-53.3 4.3,-12.9 13.4,-28.3 18.7,-34.3 8.6,-9.6 18.1,-12.8 20.4,-8.9 2.9,5.1 -10.5,42.3 -13.9,50.7 z m 94.9,45.4 c -2.3,1.2 -4.5,2 -5.5,1.4 -0.7,-0.4 1,-2 1,-2 0,0 11.9,-12.8 16.6,-18.6 2.7,-3.4 5.9,-7.4 9.3,-11.9 0,0.4 0,0.9 0,1.3 0,15.3 -14.8,25.6 -21.4,29.8 z m 73.2,-16.7 c -1.7,-1.2 -1.4,-5.2 4.3,-17.7 2.2,-4.9 7.4,-13.1 16.3,-21 1,3.2 1.7,6.3 1.6,9.2 -0.1,19.3 -13.9,26.5 -22.2,29.5 z"
         id="path778" /><g
         id="g780">
</g><g
         id="g782">
</g><g
         id="g784">
</g><g
         id="g786">
</g><g
         id="g788">
</g><g
         id="g790">
</g></g><g
       id="g832"
       transform="matrix(2.196174,0,0,2.196174,40.699329,-0.71109)"><path
         d="M 4.96,0.29 H 0.847 c -0.276,0 -0.5,0.226 -0.5,0.5 v 4.536 c 0,0.276 0.226,0.5 0.5,0.5 h 2.71 C 3.527,4.478 3.987,1.862 4.961,0.286 Z"
         fill="#0f80cc"
         id="path815" /><path
         d="M 4.81,0.437 H 0.847 c -0.196,0 -0.355,0.16 -0.355,0.355 V 4.997 C 1.39,4.652 2.737,4.355 3.669,4.369 A 28.93,28.93 0 0 1 4.811,0.437 Z"
         fill="url(#A)"
         id="path817"
         style="fill:url(#A-6)" /><path
         d="M 5.92,0.142 C 5.638,-0.108 5.297,-0.008 4.96,0.29 L 4.81,0.436 C 4.234,1.046 3.71,2.178 3.534,3.043 a 2.38,2.38 0 0 1 0.148,0.426 l 0.022,0.1 0.022,0.102 c 0,0 -0.005,-0.02 -0.026,-0.08 L 3.686,3.551 A 0.461,0.461 0 0 0 3.677,3.529 C 3.639,3.442 3.537,3.257 3.49,3.177 A 8.789,8.789 0 0 0 3.387,3.498 c 0.132,0.242 0.212,0.656 0.212,0.656 0,0 -0.007,-0.027 -0.04,-0.12 -0.03,-0.083 -0.176,-0.34 -0.21,-0.4 -0.06,0.22 -0.083,0.368 -0.062,0.404 0.04,0.07 0.08,0.2 0.115,0.324 A 7.52,7.52 0 0 1 3.534,5.028 L 3.539,5.09 A 6.11,6.11 0 0 0 3.554,5.84 C 3.58,6.153 3.629,6.422 3.691,6.566 L 3.733,6.543 C 3.643,6.259 3.605,5.888 3.621,5.459 3.646,4.804 3.796,4.014 4.075,3.191 4.548,1.938 5.2,0.94 5.798,0.464 5.253,0.956 4.516,2.548 4.296,3.137 4.049,3.797 3.874,4.417 3.768,5.01 3.95,4.454 4.538,4.214 4.538,4.214 c 0,0 0.29,-0.356 0.626,-0.865 L 4.519,3.521 4.311,3.613 c 0,0 0.53,-0.323 0.987,-0.47 0.627,-0.987 1.31,-2.39 0.622,-3.002"
         fill="#003b57"
         id="path819" /></g><g
       id="g935"
       transform="matrix(0.02108046,0,0,0.02108046,3.8907974,15.28584)"><polyline
         class="st0"
         points="171.7,621.7 20,18.4 620,186.9 "
         id="polyline836" /><g
         id="g896">
	<line
   class="st1"
   x1="245.8"
   y1="362.39999"
   x2="283.70001"
   y2="513.29999"
   id="line838" />
	<line
   class="st1"
   x1="395.5"
   y1="404.79999"
   x2="245.8"
   y2="362.39999"
   id="line840" />
	<line
   class="st1"
   x1="283.70001"
   y1="513.29999"
   x2="395.5"
   y2="404.79999"
   id="line842" />
	<path
   class="st1"
   d="M 134,470.9"
   id="path844" />
	<line
   class="st1"
   x1="283.70001"
   y1="513.29999"
   x2="134"
   y2="470.89999"
   id="line846" />
	<path
   class="st1"
   d="M 134,470.9"
   id="path848" />
	<polyline
   class="st2"
   points="134,470.9 171.9,621.9 283.7,513.3  "
   id="polyline850" />
	<line
   class="st1"
   x1="134"
   y1="470.89999"
   x2="245.8"
   y2="362.39999"
   id="line852" />
	<line
   class="st1"
   x1="245.8"
   y1="362.39999"
   x2="357.70001"
   y2="253.8"
   id="line854" />
	<line
   class="st1"
   x1="357.70001"
   y1="253.8"
   x2="469.5"
   y2="145.3"
   id="line856" />
	<line
   class="st1"
   x1="319.79999"
   y1="102.9"
   x2="357.70001"
   y2="253.8"
   id="line858" />
	<line
   class="st1"
   x1="357.70001"
   y1="253.8"
   x2="207.89999"
   y2="211.5"
   id="line860" />
	<line
   class="st1"
   x1="207.89999"
   y1="211.5"
   x2="245.8"
   y2="362.39999"
   id="line862" />
	<line
   class="st1"
   x1="245.8"
   y1="362.39999"
   x2="96.099998"
   y2="320"
   id="line864" />
	<line
   class="st1"
   x1="96.099998"
   y1="320"
   x2="134"
   y2="470.89999"
   id="line866" />
	<line
   class="st1"
   x1="58.200001"
   y1="169.10001"
   x2="96.099998"
   y2="320"
   id="line868" />
	<line
   class="st1"
   x1="207.89999"
   y1="211.5"
   x2="58.200001"
   y2="169.10001"
   id="line870" />
	<line
   class="st1"
   x1="96.099998"
   y1="320"
   x2="207.89999"
   y2="211.5"
   id="line872" />
	<line
   class="st1"
   x1="207.89999"
   y1="211.39999"
   x2="319.79999"
   y2="102.9"
   id="line874" />
	<line
   class="st1"
   x1="319.79999"
   y1="102.9"
   x2="170"
   y2="60.5"
   id="line876" />
	<line
   class="st1"
   x1="170"
   y1="60.5"
   x2="207.89999"
   y2="211.39999"
   id="line878" />
	<polyline
   class="st2"
   points="58.2,169.1 20.3,18.1 170,60.5  "
   id="polyline880" />
	<line
   class="st1"
   x1="58.200001"
   y1="169.10001"
   x2="170"
   y2="60.5"
   id="line882" />
	<polyline
   class="st2"
   points="507.4,296.2 619.2,187.7 469.5,145.3  "
   id="polyline884" />
	<line
   class="st1"
   x1="469.5"
   y1="145.3"
   x2="507.39999"
   y2="296.20001"
   id="line886" />
	<line
   class="st1"
   x1="507.39999"
   y1="296.20001"
   x2="357.70001"
   y2="253.8"
   id="line888" />
	<line
   class="st1"
   x1="357.70001"
   y1="253.8"
   x2="395.5"
   y2="404.79999"
   id="line890" />
	<line
   class="st1"
   x1="395.5"
   y1="404.79999"
   x2="507.39999"
   y2="296.20001"
   id="line892" />
	<line
   class="st1"
   x1="469.5"
   y1="145.3"
   x2="319.79999"
   y2="102.9"
   id="line894" />
</g></g><g
       style="fill:none"
       id="g951"
       transform="matrix(0.02513843,0,0,0.02513843,27.640935,0.06372)"><rect
         width="512"
         height="512"
         rx="50"
         fill="#3178c6"
         id="rect939"
         x="0"
         y="0" /><path
         d="m 317,407 v 50 c 8.1,4.2 18,7.3 29,9.4 11,2.1 23,3.1 35,3.1 12,0 23,-1.1 34,-3.4 11,-2.3 20,-6.1 28,-11 8.1,-5.3 15,-12 19,-21 4,-9 7.1,-19 7.1,-32 0,-9.1 -1.4,-17 -4.1,-24 -2.7,-7 -6.6,-13 -12,-18 -5.1,-5.3 -11,-10 -18,-14 -7,-4 -15,-8.2 -24,-12 -6.6,-2.7 -12,-5.3 -18,-7.9 -5.2,-2.6 -9.7,-5.2 -13,-7.8 -3.7,-2.7 -6.5,-5.5 -8.5,-8.4 -2,-3 -3,-6.3 -3,-10 0,-3.4 0.89,-6.5 2.7,-9.3 1.81,-2.8 4.3,-5.1 7.5,-7.1 3.2,-2 7.2,-3.5 12,-4.6 4.7,-1.1 9.9,-1.6 16,-1.6 4.2,0 8.6,0.31 13,0.94 4.6,0.63 9.3,1.6 14,2.9 4.7,1.3 9.3,2.9 14,4.9 4.4,2 8.5,4.3 12,6.9 v -47 c -7.6,-2.9 -16,-5.1 -25,-6.5 -9,-1.4 -19,-2.1 -31,-2.1 -12,0 -23,1.3 -34,3.8 -11,2.5 -20,6.5 -28,12 -8.1,5.4 -14,12 -19,21 -4.7,8.4 -7,18 -7,30 0,15 4.3,28 13,38 8.6,11 22,19 39,27 6.9,2.8 13,5.6 19,8.3 6,2.7 11,5.5 15,8.4 4.3,2.9 7.7,6.1 10,9.5 2.5,3.4 3.8,7.4 3.8,12 0,3.2 -0.78,6.2 -2.3,9 -1.52,2.8 -3.9,5.2 -7.1,7.2 -3.2,2 -7.1,3.6 -12,4.8 -4.7,1.1 -10,1.7 -17,1.7 -11,0 -22,-1.9 -32,-5.7 -11,-3.8 -21,-9.5 -30,-17 z M 233,284 h 64 V 243 H 118 v 41 h 64 v 183 h 51 z"
         clip-rule="evenodd"
         fill="#fff"
         fill-rule="evenodd"
         style="fill:#ffffff"
         id="path941" /></g><g
       id="g965"
       transform="matrix(0.02513843,0,0,0.02513843,13.820468,0.06372)"><rect
         width="512"
         height="512"
         rx="15.000001%"
         fill="#066da5"
         id="rect953"
         x="0"
         y="0" /><path
         fill="#ffffff"
         d="m 296,245 h 42 v -38 h -42 z m -50,0 h 42 v -38 h -42 z m -49,0 h 42 v -38 h -42 z m -49,0 h 41 v -38 h -41 z m -50,0 h 42 V 207 H 98 Z m 50,-46 h 41 v -38 h -41 z m 49,0 h 42 v -38 h -42 z m 49,0 h 42 v -38 h -42 z m 0,-46 h 42 v -38 h -42 z m 226,75 c 0,0 -18,-17 -55,-11 -4,-29 -35,-46 -35,-46 0,0 -29,35 -8,74 -6,3 -16,7 -31,7 H 68 c -5,19 -5,145 133,145 99,0 173,-46 208,-130 52,4 63,-39 63,-39 z"
         id="path955" /></g><g
       style="fill:none"
       id="g988"
       transform="scale(0.0282256)"><rect
         width="456"
         height="456"
         fill="#512bd4"
         id="rect967"
         x="0"
         y="0" /><path
         d="m 81.2738,291.333 c -3.2242,0 -5.9648,-1.074 -8.2218,-3.223 -2.257,-2.204 -3.3855,-4.821 -3.3855,-7.851 0,-3.086 1.1285,-5.73 3.3855,-7.934 2.257,-2.204 4.9976,-3.306 8.2218,-3.306 3.278,0 6.0455,1.102 8.3025,3.306 2.3107,2.204 3.4661,4.848 3.4661,7.934 0,3.03 -1.1554,5.647 -3.4661,7.851 -2.257,2.149 -5.0245,3.223 -8.3025,3.223 z"
         fill="#ffffff"
         id="path969" /><path
         d="m 210.167,289.515 h -20.958 l -55.215,-87.109 c -1.397,-2.204 -2.553,-4.491 -3.466,-6.86 h -0.484 c 0.43,2.535 0.645,7.962 0.645,16.281 v 77.688 h -18.54 V 171 h 22.328 l 53.362,85.043 c 2.257,3.527 3.708,5.951 4.353,7.273 h 0.322 c -0.537,-3.14 -0.806,-8.457 -0.806,-15.951 V 171 h 18.459 z"
         fill="#ffffff"
         id="path971" /><path
         d="M 300.449,289.515 H 235.561 V 171 h 62.309 v 16.695 h -43.124 v 33.554 h 39.739 v 16.612 h -39.739 v 35.042 h 45.703 z"
         fill="#ffffff"
         id="path973" /><path
         d="m 392.667,187.695 h -33.21 v 101.82 H 340.272 V 187.695 H 307.143 V 171 h 85.524 z"
         fill="#ffffff"
         id="path975" /></g></g><style
     type="text/css"
     id="style182">
	.st0{fill:#FFFFFF;}
	.st1{fill:#E535AB;}
	.st2{fill:#488FCD;}
	.st3{clip-path:url(#SVGID_2_);}
	.st4{opacity:0.1;enable-background:new    ;}
	.st5{fill:#4B5256;}
	.st6{fill:#3EB53E;}
	.st7{fill:#FFFFFF;stroke:#FFFFFF;stroke-width:8;stroke-miterlimit:10;}
	.st8{fill:none;stroke:#FFFFFF;stroke-width:8;stroke-miterlimit:10;}
	.st9{clip-path:url(#SVGID_4_);}
	.st10{clip-path:url(#SVGID_6_);}
	.st11{fill:#FF892A;}
	.st12{clip-path:url(#SVGID_8_);}
	.st13{fill:#A3AFB7;}
	.st14{clip-path:url(#SVGID_10_);}
	.st15{fill:#2B2B2B;}
	.st16{clip-path:url(#SVGID_12_);}
	.st17{opacity:0.1;fill:#FFFFFF;enable-background:new    ;}
	.st18{fill:#F40010;}
	.st19{clip-path:url(#SVGID_14_);}
	.st20{opacity:7.000000e-02;}
</style><style
     type="text/css"
     id="style372">
	.st0{fill:#FFFFFF;}
	.st1{fill:#FFFFFF;stroke:#000000;stroke-width:7;stroke-miterlimit:10;}
	.st2{fill:none;stroke:#000000;stroke-width:7;stroke-miterlimit:10;}
</style><style
     type="text/css"
     id="style182-1">
	.st0{fill:#FFFFFF;}
	.st1{fill:#E535AB;}
	.st2{fill:#488FCD;}
	.st3{clip-path:url(#SVGID_2_);}
	.st4{opacity:0.1;enable-background:new    ;}
	.st5{fill:#4B5256;}
	.st6{fill:#3EB53E;}
	.st7{fill:#FFFFFF;stroke:#FFFFFF;stroke-width:8;stroke-miterlimit:10;}
	.st8{fill:none;stroke:#FFFFFF;stroke-width:8;stroke-miterlimit:10;}
	.st9{clip-path:url(#SVGID_4_);}
	.st10{clip-path:url(#SVGID_6_);}
	.st11{fill:#FF892A;}
	.st12{clip-path:url(#SVGID_8_);}
	.st13{fill:#A3AFB7;}
	.st14{clip-path:url(#SVGID_10_);}
	.st15{fill:#2B2B2B;}
	.st16{clip-path:url(#SVGID_12_);}
	.st17{opacity:0.1;fill:#FFFFFF;enable-background:new    ;}
	.st18{fill:#F40010;}
	.st19{clip-path:url(#SVGID_14_);}
	.st20{opacity:7.000000e-02;}
</style><style
     type="text/css"
     id="style834">
	.st0{fill:#FFFFFF;}
	.st1{fill:#FFFFFF;stroke:#000000;stroke-width:7;stroke-miterlimit:10;}
	.st2{fill:none;stroke:#000000;stroke-width:7;stroke-miterlimit:10;}
</style></svg>
