<?xml version="1.0" encoding="UTF-8" standalone="no"?>
<!DOCTYPE svg PUBLIC "-//W3C//DTD SVG 1.1//EN" "http://www.w3.org/Graphics/SVG/1.1/DTD/svg11.dtd">
<!-- Generated by Microsoft Visio, SVG Export overview.svg Page-1 -->
<svg xmlns="http://www.w3.org/2000/svg" xmlns:xlink="http://www.w3.org/1999/xlink" xmlns:ev="http://www.w3.org/2001/xml-events"
		width="3.35347in" height="3.16964in" viewBox="0 0 241.45 228.214" xml:space="preserve" color-interpolation-filters="sRGB"
		class="st5">
	<style type="text/css">
	<![CDATA[
		.st1 {fill:none;stroke:none;stroke-linecap:round;stroke-linejoin:round;stroke-width:0.24}
		.st2 {fill:#000000;stroke:none;stroke-linecap:round;stroke-linejoin:round;stroke-width:6.375}
		.st3 {stroke:#000000;stroke-dasharray:3,6;stroke-linecap:round;stroke-linejoin:round;stroke-width:3}
		.st4 {fill:#000000;stroke:none;stroke-linecap:butt;stroke-width:0.95625}
		.st5 {fill:none;fill-rule:evenodd;font-size:12px;overflow:visible;stroke-linecap:square;stroke-miterlimit:3}
	]]>
	</style>

	<g>
		<title>Page-1</title>
		<g id="shape36-1" transform="translate(167.396,-96.0505)">
			<title>Square</title>
			<rect x="0" y="199.868" width="28.3465" height="28.3465" class="st1"/>
		</g>
		<g id="group15-3" transform="translate(58.0155,-190.161)">
			<title>Laptop.5</title>
			<g id="shape16-4" transform="translate(7.5796,-6.2261)">
				<title>Sheet.16</title>
				<path d="M42.95 202.06 L42.95 228.21 L0 228.21 L0 202.06 C0 200.7 1.14 199.57 2.53 199.57 L40.42 199.57 C41.81 199.57
							 42.95 200.7 42.95 202.06 ZM39.16 224.48 L39.16 203.31 L3.79 203.31 L3.79 224.48 L39.16 224.48 Z"
						class="st2"/>
			</g>
			<g id="shape17-6">
				<title>Sheet.17</title>
				<path d="M32.84 224.48 L58.11 224.48 L58.11 225.72 C58.11 227.09 56.97 228.21 55.58 228.21 L2.53 228.21 C1.14 228.21
							 0 227.09 0 225.72 L0 224.48 L25.27 224.48 L25.27 225.1 C25.27 225.47 25.52 225.72 25.9 225.72 L32.21
							 225.72 C32.59 225.72 32.84 225.47 32.84 225.1 L32.84 224.48 Z" class="st2"/>
			</g>
		</g>
		<g id="group18-8" transform="translate(167.396,-88.9639)">
			<title>Computer</title>
			<g id="shape19-9">
				<title>Sheet.19</title>
				<path d="M43.14 185.69 C44.83 185.69 46.22 187.06 46.22 188.73 L46.22 216.07 C46.22 217.74 44.83 219.1 43.14 219.1
							 L27.73 219.1 L27.73 223.66 L34.66 223.66 L34.66 228.21 L11.55 228.21 L11.55 223.66 L18.49 223.66 L18.49
							 219.1 L3.08 219.1 C1.39 219.1 0 217.74 0 216.07 L0 188.73 C0 187.06 1.39 185.69 3.08 185.69 L43.14 185.69
							 ZM41.6 214.55 L41.6 190.25 L4.62 190.25 L4.62 214.55 L41.6 214.55 Z" class="st2"/>
			</g>
			<g id="shape20-11" transform="translate(49.2982,2.84217E-14)">
				<title>Sheet.20</title>
				<path d="M18.49 185.69 C20.18 185.69 21.57 187.06 21.57 188.73 L21.57 225.18 C21.57 226.85 20.18 228.21 18.49 228.21
							 L3.08 228.21 C1.39 228.21 0 226.85 0 225.18 L0 188.73 C0 187.06 1.39 185.69 3.08 185.69 L18.49 185.69
							 ZM10.78 223.66 C12.09 223.66 13.09 222.67 13.09 221.38 C13.09 220.09 12.09 219.1 10.78 219.1 C9.47 219.1
							 8.47 220.09 8.47 221.38 C8.47 222.67 9.47 223.66 10.78 223.66 ZM18.49 200.88 L18.49 196.32 L3.08 196.32
							 L3.08 200.88 L18.49 200.88 ZM18.49 193.29 L18.49 188.73 L3.08 188.73 L3.08 193.29 L18.49 193.29 Z"
						class="st2"/>
			</g>
		</g>
		<g id="group21-13" transform="translate(3.1875,-84.9144)">
			<title>Smart Phone</title>
			<g id="shape22-14">
				<title>Sheet.22</title>
				<path d="M27.17 177.6 C27.81 177.6 28.35 178.11 28.35 178.75 L28.35 227.06 C28.35 227.7 27.81 228.21 27.17 228.21
							 L1.18 228.21 C0.53 228.21 0 227.7 0 227.06 L0 178.75 C0 178.11 0.53 177.6 1.18 177.6 L27.17 177.6 ZM11.81
							 179.9 C11.16 179.9 10.63 180.41 10.63 181.05 C10.63 181.68 11.16 182.2 11.81 182.2 L16.54 182.2 C17.19
							 182.2 17.72 181.68 17.72 181.05 C17.72 180.41 17.19 179.9 16.54 179.9 L11.81 179.9 ZM24.8 221.31 L24.8
							 184.5 L3.54 184.5 L3.54 221.31 L24.8 221.31 Z" class="st2"/>
			</g>
		</g>
		<g id="group23-16" transform="translate(58.0155,-3.1875)">
			<title>Tablet</title>
			<g id="shape24-17">
				<title>Sheet.24</title>
				<path d="M55.2 186.38 C56.8 186.38 58.11 187.72 58.11 189.36 L58.11 225.23 C58.11 226.87 56.8 228.21 55.2 228.21
							 L2.91 228.21 C1.31 228.21 0 226.87 0 225.23 L0 189.36 C0 187.72 1.31 186.38 2.91 186.38 L55.2 186.38
							 ZM29.06 187.87 C28.62 187.87 28.33 188.17 28.33 188.62 C28.33 189.06 28.62 189.36 29.06 189.36 C29.49
							 189.36 29.78 189.06 29.78 188.62 C29.78 188.17 29.49 187.87 29.06 187.87 ZM32.69 226.72 C33.12 226.72
							 33.41 226.42 33.41 225.97 C33.41 225.52 33.12 225.23 32.69 225.23 L25.42 225.23 C24.99 225.23 24.7 225.52
							 24.7 225.97 C24.7 226.42 24.99 226.72 25.42 226.72 L32.69 226.72 ZM53.75 223.73 L53.75 190.86 L4.36
							 190.86 L4.36 223.73 L53.75 223.73 Z" class="st2"/>
			</g>
		</g>
		<g id="shape27-19" transform="translate(167.396,-103.137)">
			<title>Dynamic connector</title>
			<path d="M0 221.13 L-135.86 221.13" class="st3"/>
		</g>
		<g id="shape31-22" transform="translate(87.0706,-190.161)">
			<title>Dynamic connector.31</title>
			<path d="M0 228.21 C-0 248.2 0 278.15 15.04 293.14 C30.1 308.15 60.24 308.15 80.33 308.15" class="st3"/>
		</g>
		<g id="shape32-25" transform="translate(87.0706,-45.0269)">
			<title>Dynamic connector.32</title>
			<path d="M0 228.21 C0 211.92 -0 188.17 14.21 175.96 C29.25 163.02 60.24 163.02 80.33 163.02" class="st3"/>
		</g>
		<g id="group37-28" transform="translate(117.79,-127.431)">
			<title>Sheet.37</title>
			<g id="shape38-29">
				<title>Sheet.38</title>
				<path d="M2.52 216.06 C5.55 213.16 9.65 211.38 14.18 211.38 C18.7 211.38 22.8 213.16 25.83 216.06 C26.39 216.6 27.28
							 216.58 27.81 216.03 C28.35 215.47 28.33 214.58 27.77 214.04 C24.25 210.65 19.45 208.57 14.18 208.57
							 C8.9 208.57 4.1 210.65 0.57 214.04 C0.02 214.58 0 215.46 0.53 216.03 C1.07 216.59 1.96 216.6 2.52 216.06
							 L2.52 216.06 ZM14.18 218.39 C16.67 218.39 18.94 219.32 20.67 220.85 C21.26 221.36 22.14 221.3 22.66
							 220.73 C23.17 220.15 23.11 219.26 22.53 218.74 C20.31 216.78 17.38 215.59 14.18 215.59 C10.97 215.59
							 8.05 216.78 5.82 218.74 C5.24 219.26 5.19 220.14 5.7 220.73 C6.21 221.31 7.1 221.36 7.68 220.85 C9.41
							 219.32 11.68 218.39 14.18 218.39 L14.18 218.39 ZM16.98 225.41 C16.98 223.86 15.72 222.6 14.18 222.6
							 C12.63 222.6 11.37 223.86 11.37 225.41 C11.37 226.96 12.63 228.21 14.18 228.21 C15.72 228.21 16.98 226.96
							 16.98 225.41 Z" class="st4"/>
			</g>
		</g>
	</g>
</svg>
