<?xml version="1.0" encoding="UTF-8" standalone="no"?>
<!-- Created with Inkscape (http://www.inkscape.org/) -->

<svg
   width="9.999999mm"
   height="11.235477mm"
   viewBox="0 0 9.9999988 11.235478"
   version="1.1"
   id="svg5"
   xml:space="preserve"
   inkscape:version="1.2.1 (9c6d41e410, 2022-07-14)"
   sodipodi:docname="chillicream.svg"
   xmlns:inkscape="http://www.inkscape.org/namespaces/inkscape"
   xmlns:sodipodi="http://sodipodi.sourceforge.net/DTD/sodipodi-0.dtd"
   xmlns:xlink="http://www.w3.org/1999/xlink"
   xmlns="http://www.w3.org/2000/svg"
   xmlns:svg="http://www.w3.org/2000/svg"><sodipodi:namedview
     id="namedview7"
     pagecolor="#505050"
     bordercolor="#eeeeee"
     borderopacity="1"
     inkscape:showpageshadow="0"
     inkscape:pageopacity="0"
     inkscape:pagecheckerboard="0"
     inkscape:deskcolor="#505050"
     inkscape:document-units="mm"
     showgrid="false"
     inkscape:zoom="7.1410774"
     inkscape:cx="24.226036"
     inkscape:cy="25.696403"
     inkscape:window-width="1718"
     inkscape:window-height="1368"
     inkscape:window-x="1913"
     inkscape:window-y="0"
     inkscape:window-maximized="0"
     inkscape:current-layer="g719" /><defs
     id="defs2"><rect
       id="SVGID_1_"
       x="1400.3"
       y="494.79999"
       transform="matrix(0.5562,-0.8311,0.8311,0.5562,182.9983,1513.319)"
       width="216"
       height="181" /><rect
       id="SVGID_3_"
       x="1394.9"
       y="1442.4"
       transform="matrix(0.5562,-0.8311,0.8311,0.5562,-606.8969,1929.3901)"
       width="216"
       height="181" /><rect
       id="SVGID_5_"
       x="2000"
       y="1625"
       width="175"
       height="251" /><rect
       id="SVGID_7_"
       x="2516.5"
       y="1458.7"
       transform="matrix(0.7569,-0.6536,0.6536,0.7569,-364.7093,2087.0405)"
       width="212.8"
       height="150" /><rect
       id="SVGID_9_"
       x="2490.6001"
       y="489.39999"
       transform="matrix(0.7436,-0.6686,0.6686,0.7436,297.451,1904.5868)"
       width="283"
       height="150" /><rect
       id="SVGID_11_"
       x="1955.3"
       y="208.39999"
       transform="matrix(0.4983,-0.867,0.867,0.4983,791.7575,1935.4835)"
       width="225.8"
       height="150.5" /><rect
       id="SVGID_13_"
       x="2000"
       y="689.5"
       width="304"
       height="621" /></defs><g
     inkscape:label="Layer 1"
     inkscape:groupmode="layer"
     id="layer1"
     transform="translate(-1.6350342e-5)"><g
       id="g719"
       transform="matrix(0.26458333,0,0,0.26458333,-446.17265,-147.7989)"><g
         id="ea44fd35-013e-4c34-91d8-30cb9983eb9c"
         transform="matrix(0.06975323,0,0,0.06975323,1565.7095,510.07233)">
	<path
   class="st18"
   d="m 2243.5,1078 c -4.5,-2.6 -9.3,-4.5 -14.3,-5.7 V 927.7 c 29.2,-6.9 47.2,-36.2 40.3,-65.4 -6.9,-29.2 -36.2,-47.2 -65.4,-40.3 -10.3,2.5 -19.7,7.9 -27,15.6 L 2052,765.5 c 8.5,-28.7 -7.8,-58.9 -36.6,-67.4 -28.8,-8.5 -58.9,7.8 -67.4,36.6 -3,10 -3,20.7 0,30.8 l -125.2,72.3 c -20.6,-21.8 -54.9,-22.7 -76.7,-2.1 -21.8,20.6 -22.7,54.9 -2.1,76.7 7.2,7.7 16.6,13 26.8,15.5 v 144.6 c -29.1,7 -47.1,36.3 -40.1,65.5 7,29.2 36.3,47.1 65.5,40.1 5.1,-1.2 10,-3.2 14.5,-5.8 4.5,-2.6 8.6,-5.8 12.1,-9.6 L 1948,1235 c -8.5,28.7 8,58.9 36.7,67.4 28.7,8.5 58.9,-8 67.4,-36.7 3.1,-10.6 2.9,-21.9 -0.5,-32.4 l 124.4,-71.8 c 19.9,22.4 54.2,24.3 76.6,4.4 22.4,-19.9 24.3,-54.2 4.4,-76.6 -3.9,-4.7 -8.4,-8.4 -13.5,-11.3 z M 2000,888.5 c 61.9,0 112,50.1 112.1,111.9 0,52.5 -36.4,97.9 -87.6,109.4 0.2,-3.4 0.6,-6.7 1,-10.1 1.7,-12.3 4.3,-24.5 7.9,-36.4 3,-10 6.5,-20 10.2,-29.8 0.6,-1.5 1.1,-3 1.7,-4.5 1.6,1.5 3.6,2.6 5.7,3.3 1.7,0.4 3.4,0.8 5.1,1 1.6,0.4 3.2,0.9 4.7,1.6 6.4,2.4 13.4,1.2 19.9,-0.2 5.9,-1.3 12.2,-3.7 15.3,-9.3 1.6,-2.8 1.7,-6 1.9,-9.1 0.1,-2.4 0.2,-6.4 3,-7.4 1.4,-0.4 2.2,-1.9 1.8,-3.4 -0.2,-0.6 -0.6,-1.2 -1.1,-1.5 -8.4,-5 -20.7,-0.3 -27.8,5 -4.1,3 -6.9,6.8 -10,10.8 -2.2,2.8 -7.9,5.5 -11.4,3.7 -1.4,-0.8 -2.3,-2.2 -2.6,-3.8 -0.6,-2.8 0.6,-4.5 1.5,-7.1 0.9,-2.9 1.6,-5.9 2.2,-8.8 1.3,-6.8 2,-13.7 1.9,-20.6 -1.7,-0.2 -7,-1 -8.4,-1 v 0.2 c -1.2,3.8 -1.2,8 -3,11.5 -0.7,1.5 -1.8,2.9 -3.2,3.8 -3.4,1.8 -18.3,2.2 -21.6,0.5 -4.8,-2.5 -8.4,-15.5 -8.4,-15.9 h -9.6 c 0,0.4 -3.6,13.4 -8.4,15.9 -3.3,1.7 -18.2,1.3 -21.6,-0.5 -1.4,-0.9 -2.5,-2.2 -3.2,-3.8 -1.8,-3.5 -1.8,-7.8 -3,-11.5 0,0 0,-0.1 0,-0.2 -1.2,0 -7.9,0.8 -7.9,0.8 -1.1,7.4 -1.5,14.9 -1.2,22.3 0.1,2.4 1.5,7.2 0.7,9.4 -0.6,1.6 -3.8,2.8 -5.3,3.3 -4.7,1.6 -9.8,0.6 -13.5,-2.6 -4.1,-3.6 -7.4,-7 -12.7,-8.9 -9.8,-3.4 -20.7,-0.7 -27.8,6.8 -1,1 -1,2.7 0,3.7 0.1,0.1 0.2,0.2 0.4,0.3 0.6,0.7 1.6,0.9 2.5,0.6 2.4,-0.8 4.2,1.9 5.7,3.5 l 5.5,6 c 2.9,3.2 5.7,7.2 9.7,9 4,1.8 8.6,1.9 12.7,1.7 2.5,0 5,-0.7 7.2,-2 1.7,-0.8 3.3,-1.8 4.9,-2.8 2.3,-1.2 4.4,-2.7 6.5,-4.2 1.2,-1 3.2,-5.3 5,-4.8 1.7,0.5 2.3,5.6 2.5,6.9 2.7,15.3 5.5,30.6 10.4,45.4 4,12.1 8.4,24.2 15.3,35 -61.3,-8.2 -104.3,-64.6 -96.1,-125.9 7.1,-55.7 54.5,-97.1 110.5,-97.2 z M 1798.7,1073 c -0.7,-0.2 -1.4,-0.4 -2.1,-0.6 V 927.6 c 29,-7.2 46.7,-36.5 39.5,-65.5 -0.2,-0.7 -0.3,-1.3 -0.5,-2 L 1961,787.7 c 0.5,0.5 1,1 1.5,1.5 z m 241.4,140.6 c -20.2,-22.1 -54.6,-23.7 -76.7,-3.5 -0.8,0.8 -1.7,1.6 -2.5,2.4 l -125.2,-72.3 c 0.2,-0.7 0.4,-1.4 0.6,-2.1 h 327.5 c 0.3,1.2 0.6,2.4 1,3.6 z m 163.3,-141.2 c -0.7,0.2 -1.4,0.4 -2.1,0.6 L 2037.5,789.2 c 0.5,-0.5 1,-1 1.4,-1.4 l 125.5,72.4 c -8.2,28.7 8.4,58.7 37.1,66.9 0.6,0.2 1.3,0.3 1.9,0.5 z"
   id="path499" />
	<path
   class="st18"
   d="m 1956.9,966.3 c 1.2,0.1 2.3,0.2 3.5,0.2 -0.8,2.7 -2.2,8.8 -2.2,8.8 0,0 15.3,-0.6 20.8,-0.7 7.7,-0.1 15.5,0.1 23.2,0.5 1.6,0.1 6.3,0 7.1,0 7.7,-0.4 15.4,-0.5 23.2,-0.5 6,0.1 22.3,0.7 22.3,0.7 0,0 -0.4,-4.3 -0.7,-6.2 1.9,0 3.8,-0.3 4.8,-1.5 1.8,-2.1 1.3,-6.5 1,-9 -1.1,-10 -7.9,-18.5 -17.4,-21.8 1,-2.2 1.6,-4.6 1.7,-7.1 0.1,-1.7 -0.3,-3.5 -1.2,-5 -3,-5.2 -10,-7.8 -14.9,-8.9 0.3,-3.1 -0.1,-6.2 -1.4,-9.1 -1.6,-3.8 -5.3,-9.5 -9.6,-10.5 -4.7,-1.1 -8.1,4.7 -10.6,8.2 -0.2,-0.3 -2.4,-5.2 -4.2,-6.2 -1.8,-1 -3.7,-0.6 -5.5,0 -3.2,1 -6.8,4.2 -4.2,7.7 1.2,1.6 5.2,4.3 5.4,4.6 -3.1,1.5 -6.6,1.9 -9.9,2.8 -0.9,0.2 -1.8,0.5 -2.7,0.8 -3.4,1.2 -6.4,3.2 -8.7,5.9 -2.8,3.5 -4.1,8.2 -2.3,12.4 -5,3.6 -9.4,8.1 -12.9,13.2 -3.8,5.5 -8.3,11.8 -7,18.8 0.2,1 1.2,1.8 2.4,1.9 z"
   id="path501" />
	<g
   id="g517">
		<defs
   id="defs504">
			<rect
   id="rect708"
   x="2000"
   y="689.5"
   width="304"
   height="621" />
		</defs>
		<clipPath
   id="SVGID_14_">
			<use
   xlink:href="#SVGID_13_"
   style="overflow:visible"
   id="use506" />
		</clipPath>
		<g
   class="st19"
   clip-path="url(#SVGID_14_)"
   id="g515">
			<g
   class="st20"
   id="g513">
				<path
   d="m 2243.5,1078 c -4.5,-2.6 -9.3,-4.5 -14.3,-5.7 V 927.7 c 29.2,-6.9 47.2,-36.2 40.3,-65.4 -6.9,-29.2 -36.2,-47.2 -65.4,-40.3 -10.3,2.5 -19.7,7.9 -27,15.6 L 2052,765.5 c 8.5,-28.7 -7.8,-58.9 -36.6,-67.4 -28.8,-8.5 -58.9,7.8 -67.4,36.6 -3,10 -3,20.7 0,30.8 l -125.2,72.3 c -20.6,-21.8 -54.9,-22.7 -76.7,-2.1 -21.8,20.6 -22.7,54.9 -2.1,76.7 7.2,7.7 16.6,13 26.8,15.5 v 144.6 c -29.1,7 -47.1,36.3 -40.1,65.5 7,29.2 36.3,47.1 65.5,40.1 5.1,-1.2 10,-3.2 14.5,-5.8 4.5,-2.6 8.6,-5.8 12.1,-9.6 L 1948,1235 c -8.5,28.7 8,58.9 36.7,67.4 28.7,8.5 58.9,-8 67.4,-36.7 3.1,-10.6 2.9,-21.9 -0.5,-32.4 l 124.4,-71.8 c 19.9,22.4 54.2,24.3 76.6,4.4 22.4,-19.9 24.3,-54.2 4.4,-76.6 -3.9,-4.7 -8.4,-8.4 -13.5,-11.3 z M 2000,888.5 c 61.9,0 112,50.1 112.1,111.9 0,52.5 -36.4,97.9 -87.6,109.4 0.2,-3.4 0.6,-6.7 1,-10.1 1.7,-12.3 4.3,-24.5 7.9,-36.4 3,-10 6.5,-20 10.2,-29.8 0.6,-1.5 1.1,-3 1.7,-4.5 1.6,1.5 3.6,2.6 5.7,3.3 1.7,0.4 3.4,0.8 5.1,1 1.6,0.4 3.2,0.9 4.7,1.6 6.4,2.4 13.4,1.2 19.9,-0.2 5.9,-1.3 12.2,-3.7 15.3,-9.3 1.6,-2.8 1.7,-6 1.9,-9.1 0.1,-2.4 0.2,-6.4 3,-7.4 1.4,-0.4 2.2,-1.9 1.8,-3.4 -0.2,-0.6 -0.6,-1.2 -1.1,-1.5 -8.4,-5 -20.7,-0.3 -27.8,5 -4.1,3 -6.9,6.8 -10,10.8 -2.2,2.8 -7.9,5.5 -11.4,3.7 -1.4,-0.8 -2.3,-2.2 -2.6,-3.8 -0.6,-2.8 0.6,-4.5 1.5,-7.1 0.9,-2.9 1.6,-5.9 2.2,-8.8 1.3,-6.8 2,-13.7 1.9,-20.6 -1.7,-0.2 -7,-1 -8.4,-1 v 0.2 c -1.2,3.8 -1.2,8 -3,11.5 -0.7,1.5 -1.8,2.9 -3.2,3.8 -3.4,1.8 -18.3,2.2 -21.6,0.5 -4.8,-2.5 -8.4,-15.5 -8.4,-15.9 h -9.6 c 0,0.4 -3.6,13.4 -8.4,15.9 -3.3,1.7 -18.2,1.3 -21.6,-0.5 -1.4,-0.9 -2.5,-2.2 -3.2,-3.8 -1.8,-3.5 -1.8,-7.8 -3,-11.5 0,0 0,-0.1 0,-0.2 -1.2,0 -7.9,0.8 -7.9,0.8 -1.1,7.4 -1.5,14.9 -1.2,22.3 0.1,2.4 1.5,7.2 0.7,9.4 -0.6,1.6 -3.8,2.8 -5.3,3.3 -4.7,1.6 -9.8,0.6 -13.5,-2.6 -4.1,-3.6 -7.4,-7 -12.7,-8.9 -9.8,-3.4 -20.7,-0.7 -27.8,6.8 -1,1 -1,2.7 0,3.7 0.1,0.1 0.2,0.2 0.4,0.3 0.6,0.7 1.6,0.9 2.5,0.6 2.4,-0.8 4.2,1.9 5.7,3.5 l 5.5,6 c 2.9,3.2 5.7,7.2 9.7,9 4,1.8 8.6,1.9 12.7,1.7 2.5,0 5,-0.7 7.2,-2 1.7,-0.8 3.3,-1.8 4.9,-2.8 2.3,-1.2 4.4,-2.7 6.5,-4.2 1.2,-1 3.2,-5.3 5,-4.8 1.7,0.5 2.3,5.6 2.5,6.9 2.7,15.3 5.5,30.6 10.4,45.4 4,12.1 8.4,24.2 15.3,35 -61.3,-8.2 -104.3,-64.6 -96.1,-125.9 7.1,-55.7 54.5,-97.1 110.5,-97.2 z M 1798.7,1073 c -0.7,-0.2 -1.4,-0.4 -2.1,-0.6 V 927.6 c 29,-7.2 46.7,-36.5 39.5,-65.5 -0.2,-0.7 -0.3,-1.3 -0.5,-2 L 1961,787.7 c 0.5,0.5 1,1 1.5,1.5 z m 241.4,140.6 c -20.2,-22.1 -54.6,-23.7 -76.7,-3.5 -0.8,0.8 -1.7,1.6 -2.5,2.4 l -125.2,-72.3 c 0.2,-0.7 0.4,-1.4 0.6,-2.1 h 327.5 c 0.3,1.2 0.6,2.4 1,3.6 z m 163.3,-141.2 c -0.7,0.2 -1.4,0.4 -2.1,0.6 L 2037.5,789.2 c 0.5,-0.5 1,-1 1.4,-1.4 l 125.5,72.4 c -8.2,28.7 8.4,58.7 37.1,66.9 0.6,0.2 1.3,0.3 1.9,0.5 z"
   id="path509" />
				<path
   d="m 1956.9,966.3 c 1.2,0.1 2.3,0.2 3.5,0.2 -0.8,2.7 -2.2,8.8 -2.2,8.8 0,0 15.3,-0.6 20.8,-0.7 7.7,-0.1 15.5,0.1 23.2,0.5 1.6,0.1 6.3,0 7.1,0 7.7,-0.4 15.4,-0.5 23.2,-0.5 6,0.1 22.3,0.7 22.3,0.7 0,0 -0.4,-4.3 -0.7,-6.2 1.9,0 3.8,-0.3 4.8,-1.5 1.8,-2.1 1.3,-6.5 1,-9 -1.1,-10 -7.9,-18.5 -17.4,-21.8 1,-2.2 1.6,-4.6 1.7,-7.1 0.1,-1.7 -0.3,-3.5 -1.2,-5 -3,-5.2 -10,-7.8 -14.9,-8.9 0.3,-3.1 -0.1,-6.2 -1.4,-9.1 -1.6,-3.8 -5.3,-9.5 -9.6,-10.5 -4.7,-1.1 -8.1,4.7 -10.6,8.2 -0.2,-0.3 -2.4,-5.2 -4.2,-6.2 -1.8,-1 -3.7,-0.6 -5.5,0 -3.2,1 -6.8,4.2 -4.2,7.7 1.2,1.6 5.2,4.3 5.4,4.6 -3.1,1.5 -6.6,1.9 -9.9,2.8 -0.9,0.2 -1.8,0.5 -2.7,0.8 -3.4,1.2 -6.4,3.2 -8.7,5.9 -2.8,3.5 -4.1,8.2 -2.3,12.4 -5,3.6 -9.4,8.1 -12.9,13.2 -3.8,5.5 -8.3,11.8 -7,18.8 0.2,1 1.2,1.8 2.4,1.9 z"
   id="path511" />
			</g>
		</g>
	</g>
</g></g></g><style
     type="text/css"
     id="style182">
	.st0{fill:#FFFFFF;}
	.st1{fill:#E535AB;}
	.st2{fill:#488FCD;}
	.st3{clip-path:url(#SVGID_2_);}
	.st4{opacity:0.1;enable-background:new    ;}
	.st5{fill:#4B5256;}
	.st6{fill:#3EB53E;}
	.st7{fill:#FFFFFF;stroke:#FFFFFF;stroke-width:8;stroke-miterlimit:10;}
	.st8{fill:none;stroke:#FFFFFF;stroke-width:8;stroke-miterlimit:10;}
	.st9{clip-path:url(#SVGID_4_);}
	.st10{clip-path:url(#SVGID_6_);}
	.st11{fill:#FF892A;}
	.st12{clip-path:url(#SVGID_8_);}
	.st13{fill:#A3AFB7;}
	.st14{clip-path:url(#SVGID_10_);}
	.st15{fill:#2B2B2B;}
	.st16{clip-path:url(#SVGID_12_);}
	.st17{opacity:0.1;fill:#FFFFFF;enable-background:new    ;}
	.st18{fill:#F40010;}
	.st19{clip-path:url(#SVGID_14_);}
	.st20{opacity:7.000000e-02;}
</style></svg>
